<svg width="20" height="20" viewBox="0 0 20 20" fill="none" xmlns="http://www.w3.org/2000/svg">
<path d="M5.44455 10.4444H14.5557V12.1555H15.4446V9.55555H10.4446V7.77777H9.55566V9.55555H4.55566V12.1555H5.44455V10.4444Z" fill="white"/>
<path d="M7.77775 12.7778H2.2222C1.92751 12.7778 1.64489 12.8948 1.43652 13.1032C1.22815 13.3116 1.11108 13.5942 1.11108 13.8889V17.2222C1.11108 17.5169 1.22815 17.7995 1.43652 18.0079C1.64489 18.2163 1.92751 18.3333 2.2222 18.3333H7.77775C8.07244 18.3333 8.35505 18.2163 8.56343 18.0079C8.7718 17.7995 8.88886 17.5169 8.88886 17.2222V13.8889C8.88886 13.5942 8.7718 13.3116 8.56343 13.1032C8.35505 12.8948 8.07244 12.7778 7.77775 12.7778ZM2.2222 17.2222V13.8889H7.77775V17.2222H2.2222Z" fill="white"/>
<path d="M17.7778 12.7778H12.2222C11.9275 12.7778 11.6449 12.8948 11.4365 13.1032C11.2281 13.3116 11.1111 13.5942 11.1111 13.8889V17.2222C11.1111 17.5169 11.2281 17.7995 11.4365 18.0079C11.6449 18.2163 11.9275 18.3333 12.2222 18.3333H17.7778C18.0724 18.3333 18.3551 18.2163 18.5634 18.0079C18.7718 17.7995 18.8889 17.5169 18.8889 17.2222V13.8889C18.8889 13.5942 18.7718 13.3116 18.5634 13.1032C18.3551 12.8948 18.0724 12.7778 17.7778 12.7778ZM12.2222 17.2222V13.8889H17.7778V17.2222H12.2222Z" fill="white"/>
<path d="M7.2222 7.22221H12.7778C13.0724 7.22221 13.3551 7.10515 13.5634 6.89677C13.7718 6.6884 13.8889 6.40579 13.8889 6.1111V2.77777C13.8889 2.48308 13.7718 2.20047 13.5634 1.99209C13.3551 1.78372 13.0724 1.66666 12.7778 1.66666H7.2222C6.92751 1.66666 6.64489 1.78372 6.43652 1.99209C6.22815 2.20047 6.11108 2.48308 6.11108 2.77777V6.1111C6.11108 6.40579 6.22815 6.6884 6.43652 6.89677C6.64489 7.10515 6.92751 7.22221 7.2222 7.22221ZM7.2222 2.77777H12.7778V6.1111H7.2222V2.77777Z" fill="white"/>
</svg>
