<svg width="431" height="368" viewBox="0 0 431 368" fill="none" xmlns="http://www.w3.org/2000/svg">
<g clip-path="url(#clip0_1106_10546)">
<path opacity="0.128511" fill-rule="evenodd" clip-rule="evenodd" d="M161.75 145.415C162.984 141.622 167.051 139.546 170.84 140.776L325.415 190.943C329.213 192.176 331.29 196.26 330.054 200.06L293.399 312.741C292.166 316.533 288.098 318.608 284.309 317.379L129.734 267.212C125.937 265.98 123.859 261.896 125.095 258.095L161.75 145.415Z" fill="url(#paint0_linear_1106_10546)"/>
<path opacity="0.216285" fill-rule="evenodd" clip-rule="evenodd" d="M216.727 40.0289C217.961 36.2365 222.028 34.161 225.818 35.3906L398.866 91.5525C402.663 92.7852 404.741 96.8686 403.504 100.669L362.404 227.018C361.17 230.81 357.103 232.886 353.314 231.656L180.265 175.494C176.468 174.262 174.39 170.178 175.627 166.377L216.727 40.0289Z" fill="url(#paint1_linear_1106_10546)"/>
<g opacity="0.226656" filter="url(#filter0_f_1106_10546)">
<path opacity="0.226656" fill-rule="evenodd" clip-rule="evenodd" d="M45.5675 15.0354C46.8012 11.2429 50.8687 9.16747 54.6576 10.3971L144.919 39.6909C148.716 40.9232 150.794 45.0073 149.558 48.808L128.687 112.967C127.453 116.759 123.386 118.835 119.597 117.605L29.3356 88.3113C25.5385 87.0794 23.4605 82.9952 24.6969 79.1945L45.5675 15.0354Z" fill="url(#paint2_linear_1106_10546)"/>
</g>
<path opacity="0.216285" fill-rule="evenodd" clip-rule="evenodd" d="M331.38 272.1C332.614 268.307 336.681 266.232 340.47 267.462L379.418 280.101C383.214 281.334 385.292 285.418 384.056 289.219L363.185 353.378C361.952 357.17 357.884 359.245 354.095 358.016L315.148 345.376C311.351 344.144 309.273 340.059 310.509 336.259L331.38 272.1Z" fill="url(#paint3_linear_1106_10546)"/>
<path opacity="0.128511" fill-rule="evenodd" clip-rule="evenodd" d="M392.936 201.919C394.17 198.126 398.237 196.051 402.026 197.281L423.868 204.369C427.666 205.601 429.744 209.686 428.507 213.486L415.862 252.359C414.628 256.152 410.561 258.228 406.772 256.998L384.93 249.909C381.132 248.676 379.054 244.592 380.29 240.792L392.936 201.919Z" fill="url(#paint4_linear_1106_10546)"/>
<path fill-rule="evenodd" clip-rule="evenodd" d="M94.5859 80.8812C94.5859 70.8444 102.711 62.7078 112.733 62.7078H221.374C231.397 62.7078 239.522 70.8444 239.522 80.8812V345.825C239.522 355.862 231.397 363.998 221.374 363.998H112.733C102.711 363.998 94.5859 355.862 94.5859 345.825V80.8812Z" fill="#73B21A" fill-opacity="0.22"/>
<path fill-rule="evenodd" clip-rule="evenodd" d="M99.8125 89.3654C99.8125 81.97 105.8 75.9743 113.184 75.9743H220.448C227.832 75.9743 233.819 81.97 233.819 89.3654V341.298C233.819 348.693 227.832 354.689 220.448 354.689H113.184C105.8 354.689 99.8125 348.693 99.8125 341.298V89.3654Z" fill="#252D41"/>
<mask id="mask0_1106_10546" style="mask-type:alpha" maskUnits="userSpaceOnUse" x="99" y="75" width="135" height="280">
<path fill-rule="evenodd" clip-rule="evenodd" d="M99.8125 89.3654C99.8125 81.97 105.8 75.9743 113.184 75.9743H220.448C227.832 75.9743 233.819 81.97 233.819 89.3654V341.298C233.819 348.693 227.832 354.689 220.448 354.689H113.184C105.8 354.689 99.8125 348.693 99.8125 341.298V89.3654Z" fill="white"/>
</mask>
<g mask="url(#mask0_1106_10546)">
<path d="M160.677 247.988C167.025 247.988 172.171 242.834 172.171 236.476C172.171 230.118 167.025 224.963 160.677 224.963C154.33 224.963 149.184 230.118 149.184 236.476C149.184 242.834 154.33 247.988 160.677 247.988Z" fill="#68DE9E" fill-opacity="0.642073"/>
<path fill-rule="evenodd" clip-rule="evenodd" d="M114.521 237.195C145.17 237.195 170.015 262.081 170.015 292.779C170.015 323.478 145.17 348.363 114.521 348.363C83.8731 348.363 59.0273 323.478 59.0273 292.779C59.0273 262.081 83.8731 237.195 114.521 237.195ZM114.521 261.48C97.263 261.48 83.2724 275.492 83.2724 292.779C83.2724 310.066 97.263 324.079 114.521 324.079C131.78 324.079 145.77 310.066 145.77 292.779C145.77 275.492 131.78 261.48 114.521 261.48Z" fill="url(#paint5_linear_1106_10546)"/>
</g>
<path d="M180.656 67.6227C181.897 67.6227 182.902 68.5891 182.902 69.7813C182.902 70.947 181.941 71.8969 180.739 71.9385L180.656 71.9399H140.905C139.665 71.9399 138.66 70.9735 138.66 69.7813C138.66 68.6156 139.621 67.6657 140.822 67.6241L140.905 67.6227H180.656Z" fill="#6A943B"/>
<path d="M187.957 67.2628C189.196 67.2628 190.201 68.2695 190.201 69.5114C190.201 70.7256 189.24 71.715 188.039 71.7584L187.957 71.7599H187.839C186.599 71.7599 185.594 70.7532 185.594 69.5114C185.594 68.2971 186.555 67.3076 187.757 67.2643L187.839 67.2628H187.957Z" fill="#6A943B"/>
<path opacity="0.272833" fill-rule="evenodd" clip-rule="evenodd" d="M210.897 116.752C210.897 112.459 207.421 108.979 203.134 108.979H130.106C125.819 108.979 122.344 112.459 122.344 116.752V204.133C122.344 208.426 125.819 211.907 130.106 211.907H203.134C207.421 211.907 210.897 208.426 210.897 204.133V116.752Z" fill="#00CFE8"/>
<path fill-rule="evenodd" clip-rule="evenodd" d="M204.198 124.472C204.198 120.178 200.723 116.699 196.436 116.699H137.805C133.518 116.699 130.043 120.178 130.043 124.472V131.883C130.043 136.176 133.518 139.656 137.805 139.656H196.436C200.723 139.656 204.198 136.176 204.198 131.883V124.472Z" fill="#F4FEFF"/>
<path fill-rule="evenodd" clip-rule="evenodd" d="M199.186 128.097C199.186 123.934 195.816 120.558 191.658 120.558H190.672C186.515 120.558 183.145 123.934 183.145 128.097C183.145 132.26 186.515 135.636 190.672 135.636H191.658C195.816 135.636 199.186 132.26 199.186 128.097Z" fill="#7367F0" fill-opacity="0.210173"/>
<path fill-rule="evenodd" clip-rule="evenodd" d="M204.198 154.627C204.198 150.333 200.723 146.853 196.436 146.853H137.805C133.518 146.853 130.043 150.333 130.043 154.627V162.037C130.043 166.33 133.518 169.811 137.805 169.811H196.436C200.723 169.811 204.198 166.33 204.198 162.037V154.627Z" fill="#F4FEFF"/>
<path fill-rule="evenodd" clip-rule="evenodd" d="M199.186 158.252C199.186 154.088 195.816 150.713 191.658 150.713H190.672C186.515 150.713 183.145 154.088 183.145 158.252C183.145 162.415 186.515 165.79 190.672 165.79H191.658C195.816 165.79 199.186 162.415 199.186 158.252Z" fill="#7367F0" fill-opacity="0.210173"/>
<path fill-rule="evenodd" clip-rule="evenodd" d="M204.198 184.781C204.198 180.488 200.723 177.007 196.436 177.007H137.805C133.518 177.007 130.043 180.488 130.043 184.781V192.191C130.043 196.485 133.518 199.965 137.805 199.965H196.436C200.723 199.965 204.198 196.485 204.198 192.191V184.781Z" fill="#F4FEFF"/>
<path fill-rule="evenodd" clip-rule="evenodd" d="M199.186 188.406C199.186 184.242 195.816 180.867 191.658 180.867H190.672C186.515 180.867 183.145 184.242 183.145 188.406C183.145 192.57 186.515 195.944 190.672 195.944H191.658C195.816 195.944 199.186 192.57 199.186 188.406Z" fill="#7367F0" fill-opacity="0.210173"/>
<path fill-rule="evenodd" clip-rule="evenodd" d="M27.7421 347.896L25.1406 363.625L34.1133 363.577L34.4167 347.649L27.7421 347.896Z" fill="#B8B6C9"/>
<path fill-rule="evenodd" clip-rule="evenodd" d="M24.4281 357.687L24.3646 359.013C23.4065 360.073 22.9969 362.266 23.1358 365.59C23.1358 367.814 35.9732 367.748 36.6855 365.59C36.9285 361.983 36.492 359.743 35.3759 358.871L35.3689 357.591C35.3644 356.76 34.8032 356.036 33.998 355.821L32.3734 355.385C30.9715 353.344 29.061 353.417 27.4239 355.641L25.8846 355.973C25.0655 356.151 24.4681 356.854 24.4281 357.687Z" fill="#272B29"/>
<path fill-rule="evenodd" clip-rule="evenodd" d="M58.1731 223.897C58.1731 223.897 46.5716 287.723 44.5373 294.369C42.503 301.015 36.8613 351.006 36.8613 351.006L24.6752 351.041C24.6752 351.041 24.4156 312.559 25.6466 306.373C26.8775 300.189 29.6562 290.004 29.6562 290.004C29.6562 290.004 31.7208 253.026 32.9559 244.4C34.1906 235.774 38.1547 222.989 38.1547 222.989L58.1731 223.897Z" fill="#272B29"/>
<path fill-rule="evenodd" clip-rule="evenodd" d="M49.3434 271.243L50.4568 262.556L49.6422 264.948C45.5866 276.931 42.829 286.232 41.3695 292.853C40.1413 298.424 39.883 308.043 40.5949 321.708L41.404 315.012C42.5705 305.529 43.7047 297.207 44.5065 294.471L44.5858 294.206C45.3394 291.606 47.2167 282.287 49.3434 271.243Z" fill="white" fill-opacity="0.192499"/>
<path fill-rule="evenodd" clip-rule="evenodd" d="M57.2188 350.131L65.4085 350.186L65.4108 350.416C65.4378 351.546 65.745 356.527 69.0335 358.439L69.6897 358.827C73.3925 361.048 78.5154 364.622 78.5154 364.622L56.5938 365.369L57.2188 350.131Z" fill="#B8B6C9"/>
<path fill-rule="evenodd" clip-rule="evenodd" d="M58.3529 355.711C56.4327 355.534 55.4727 359.222 55.4727 366.777L65.304 366.813L65.9702 365.369L66.5962 365.621C67.9293 366.146 68.8762 366.435 69.4366 366.49L69.9568 366.537C72.7134 366.775 76.5332 366.887 81.4172 366.872L81.4331 366.788C81.5161 366.276 81.7349 363.542 77.4898 361.465L77.2906 361.37C72.4507 359.099 68.9048 355.891 68.1391 355.465L68.1019 355.445C67.4161 355.107 67.8635 354.916 66.889 355.711C65.9145 356.505 65.7541 358.592 63.5459 358.658C60.7037 358.742 61.2333 355.976 58.3529 355.711Z" fill="#272B29"/>
<path fill-rule="evenodd" clip-rule="evenodd" d="M47.0029 253.979C50.1439 265.321 52.7042 293.019 52.7042 293.019C52.7042 293.019 52.9932 295.937 51.742 304.02C50.4906 312.103 55.4211 351.435 55.4211 351.435L68.3988 351.461C68.3988 351.461 69.9996 298.623 70.0755 293.065C70.194 284.4 73 224.323 73 224.323L46.0094 223.708C46.0094 223.708 43.8619 242.636 47.0029 253.979Z" fill="#272B29"/>
<path fill-rule="evenodd" clip-rule="evenodd" d="M65.9253 247.059L65.9763 247.281C67.8407 255.132 64.6434 289.928 65.5536 298.202L65.9162 301.162C66.5489 306.481 67.6197 316.178 69.1283 330.254L69.4556 318.472C69.756 307.276 70.0114 296.74 70.0666 293.536L70.074 293.065C70.1925 284.4 72.9985 224.324 72.9985 224.324L67.9494 224.209L67.7286 225.181C65.4997 235.135 64.8986 242.428 65.9253 247.059Z" fill="white" fill-opacity="0.192499"/>
<path d="M70.1953 357.688L70.8166 356.609" stroke="white" stroke-width="2" stroke-linecap="round"/>
<path d="M72.0234 358.921L72.6447 357.842" stroke="white" stroke-width="2" stroke-linecap="round"/>
<path d="M73.8555 360.155L74.4763 359.075" stroke="white" stroke-width="2" stroke-linecap="round"/>
<path fill-rule="evenodd" clip-rule="evenodd" d="M66.4045 145.974C69.2236 146.283 69.0237 151.242 65.5921 151.501C64.8907 156.282 62.3893 158.56 59.3397 158.823L59.5088 166.055L46.0195 166.047C46.0195 166.047 49.8181 160.938 49.6287 153.945C49.4394 146.951 49.7558 140.381 49.7558 140.381L67.2276 140.695L66.4045 145.974Z" fill="url(#paint6_linear_1106_10546)"/>
<path fill-rule="evenodd" clip-rule="evenodd" d="M67.7576 143.028C68.9732 143.615 68.0054 146.271 67.39 146.271C64.5663 145.153 62.2253 149.177 61.0352 153.218C57.6556 156.536 50.1882 156.61 49.4167 153.834C46.4959 147.755 46.3527 138.964 49.7611 138.286C47.0855 131.221 83.2185 127.525 67.7576 143.028Z" fill="url(#paint7_linear_1106_10546)"/>
<path fill-rule="evenodd" clip-rule="evenodd" d="M64.7399 154.21C64.6011 153.905 63.7736 155.991 62.4359 157.109C61.0515 158.265 58.9734 158.604 59.3394 158.823C62.148 160.507 65.8705 156.692 64.7399 154.21Z" fill="url(#paint8_linear_1106_10546)"/>
<path fill-rule="evenodd" clip-rule="evenodd" d="M12.644 179.523C12.644 179.523 13.2366 175.527 13.0486 172.897C12.7007 168.034 13.366 163.931 12.2907 163.293C10.9114 162.475 10.5665 169.736 10.5665 169.736C10.5665 169.736 2.68945 156.895 1.04726 158.446C-0.59493 159.998 2.83062 166.746 2.28745 168.697C1.74429 170.648 7.17217 180.086 7.17217 180.086L12.644 179.523Z" fill="url(#paint9_linear_1106_10546)"/>
<path fill-rule="evenodd" clip-rule="evenodd" d="M41.7634 181.831C41.7634 181.831 29.8319 200.417 27.196 204.021C24.4311 207.801 19.5481 209.475 16.0827 203.445C13.0177 198.11 6.45492 184.751 5.62432 180.598C5.00464 177.5 11.3519 172.882 14.4025 177.512C17.4531 182.141 22.2711 189.103 22.2711 189.103C22.2711 189.103 30.1938 174.729 32.6635 171.338C39.324 162.192 49.4722 170.404 41.7634 181.831Z" fill="#6A943B"/>
<path fill-rule="evenodd" clip-rule="evenodd" d="M22.27 189.103L19.6484 193.623L20.6038 186.646L22.27 189.103Z" fill="black" fill-opacity="0.159856"/>
<path d="M14.1792 177.662C11.4073 176.784 8.86913 177.251 6.84375 180.667" stroke="#5386BF" stroke-linecap="round"/>
<path fill-rule="evenodd" clip-rule="evenodd" d="M47.482 162.531L61.4205 162.621L61.9911 162.852C64.2904 163.796 72.8299 167.473 74.4203 170.622C77.0785 175.883 73.5764 218.039 75.1033 220.582C78.3239 225.949 74.1171 229.649 60.1373 231.05L59.7107 231.091C45.3903 232.458 32.6857 231.339 34.9911 224.105C37.2971 216.871 30.2417 170.276 36.8578 167.058L47.482 162.531Z" fill="#73B21A"/>
<path fill-rule="evenodd" clip-rule="evenodd" d="M62.5147 173.207C60.4497 177.709 64.5513 189.425 74.8196 208.356L74.9467 204.127C75.2824 193.571 75.7762 180.704 75.156 174.229C68.6708 169.314 64.4572 168.973 62.5147 173.207Z" fill="black" fill-opacity="0.159856"/>
<path fill-rule="evenodd" clip-rule="evenodd" d="M62.3579 161.295C61.4908 161.059 46.9705 161.295 46.3936 161.295C45.8167 161.295 45.8167 163.766 46.3936 163.766C46.7464 163.766 51.2495 163.699 62.359 163.565C63.3615 163.552 66.0358 164.688 66.0358 164.688C66.0358 164.688 63.2251 161.532 62.3579 161.295Z" fill="url(#paint10_linear_1106_10546)"/>
<path fill-rule="evenodd" clip-rule="evenodd" d="M118.686 204.24C118.686 204.24 126.288 205.449 127.722 204.262C129.156 203.075 134.868 195.006 134.244 193.618C133.621 192.23 128.409 195.166 127.965 194.283C127.394 193.149 130.341 189.102 127.758 188.866C127.093 188.806 126.623 191.296 124.751 192.937C122.879 194.577 118.359 198.217 118.359 198.217L118.686 204.24Z" fill="url(#paint11_linear_1106_10546)"/>
<path fill-rule="evenodd" clip-rule="evenodd" d="M72.7458 168.72C79.3155 174.98 88.617 189.763 90.5995 191.065C92.5812 192.367 117.376 194.994 119.71 197.114C121.66 198.886 121.836 204.275 119.71 205.769C117.584 207.264 89.6689 205.26 84.5489 203.766C79.4288 202.273 70.6596 188.584 66.7424 184.311C55.7876 172.362 66.1761 162.461 72.7458 168.72Z" fill="#6A943B"/>
<path d="M117.129 196.247C118.356 197.685 118.976 199.781 118.356 203.876" stroke="#5386BF" stroke-linecap="round"/>
</g>
<defs>
<filter id="filter0_f_1106_10546" x="13.4667" y="-0.830091" width="147.32" height="129.663" filterUnits="userSpaceOnUse" color-interpolation-filters="sRGB">
<feFlood flood-opacity="0" result="BackgroundImageFix"/>
<feBlend mode="normal" in="SourceGraphic" in2="BackgroundImageFix" result="shape"/>
<feGaussianBlur stdDeviation="5.43656" result="effect1_foregroundBlur_1106_10546"/>
</filter>
<linearGradient id="paint0_linear_1106_10546" x1="49.2567" y1="286.146" x2="248.631" y2="392.485" gradientUnits="userSpaceOnUse">
<stop stop-color="#FAFEFF"/>
<stop offset="1" stop-color="#28C76F"/>
</linearGradient>
<linearGradient id="paint1_linear_1106_10546" x1="120.664" y1="140.409" x2="235.786" y2="251.164" gradientUnits="userSpaceOnUse">
<stop stop-color="#FAFEFF"/>
<stop offset="1" stop-color="#00CFE8"/>
</linearGradient>
<linearGradient id="paint2_linear_1106_10546" x1="-22.9964" y1="99.0896" x2="100.153" y2="164.847" gradientUnits="userSpaceOnUse">
<stop stop-color="#FAFEFF"/>
<stop offset="1" stop-color="#77ECAB"/>
</linearGradient>
<linearGradient id="paint3_linear_1106_10546" x1="294.651" y1="329.988" x2="335.988" y2="355.65" gradientUnits="userSpaceOnUse">
<stop stop-color="#FAFEFF"/>
<stop offset="1" stop-color="#00CFE8"/>
</linearGradient>
<linearGradient id="paint4_linear_1106_10546" x1="359.777" y1="260.498" x2="404.226" y2="279.503" gradientUnits="userSpaceOnUse">
<stop stop-color="#FAFEFF"/>
<stop offset="1" stop-color="#28C76F"/>
</linearGradient>
<linearGradient id="paint5_linear_1106_10546" x1="82.3635" y1="367.748" x2="173.144" y2="321.119" gradientUnits="userSpaceOnUse">
<stop stop-color="#F8FDFF"/>
<stop offset="1" stop-color="#88EFB6"/>
</linearGradient>
<linearGradient id="paint6_linear_1106_10546" x1="72.2232" y1="134.131" x2="69.9582" y2="164.703" gradientUnits="userSpaceOnUse">
<stop stop-color="#FDC6C6"/>
<stop offset="1" stop-color="#FAB2B2"/>
</linearGradient>
<linearGradient id="paint7_linear_1106_10546" x1="69.6204" y1="139.799" x2="42.3195" y2="139.799" gradientUnits="userSpaceOnUse">
<stop stop-color="#3F4044"/>
<stop offset="1" stop-color="#222735"/>
</linearGradient>
<linearGradient id="paint8_linear_1106_10546" x1="66.7229" y1="161.969" x2="56.084" y2="163.637" gradientUnits="userSpaceOnUse">
<stop stop-color="#4D63A0"/>
<stop offset="1" stop-color="#222735"/>
</linearGradient>
<linearGradient id="paint9_linear_1106_10546" x1="15.2463" y1="153.016" x2="12.354" y2="178.757" gradientUnits="userSpaceOnUse">
<stop stop-color="#FDC6C6"/>
<stop offset="1" stop-color="#FAB2B2"/>
</linearGradient>
<linearGradient id="paint10_linear_1106_10546" x1="102.789" y1="156.205" x2="102.748" y2="173.386" gradientUnits="userSpaceOnUse">
<stop stop-color="#6A943B"/>
<stop offset="1" stop-color="#648BF0"/>
</linearGradient>
<linearGradient id="paint11_linear_1106_10546" x1="137.049" y1="184.99" x2="135.826" y2="203.971" gradientUnits="userSpaceOnUse">
<stop stop-color="#FDC6C6"/>
<stop offset="1" stop-color="#FAB2B2"/>
</linearGradient>
<clipPath id="clip0_1106_10546">
<rect width="431" height="368" fill="white"/>
</clipPath>
</defs>
</svg>
